<svg width="187" height="104" viewBox="0 0 187 104" fill="none" xmlns="http://www.w3.org/2000/svg">
<path d="M1.40926 1.8809L6.37363 1.7647C7.81203 1.72595 7.88839 3.98635 6.43726 4.0251L1.47289 4.14131C0.0344976 4.18006 -0.0418619 1.91965 1.40926 1.8809Z" fill="#DAB692"/>
<path d="M12.2875 3.87012C10.8678 3.661 11.4001 1.56976 12.8198 1.77888C14.1001 1.9757 15.3931 2.02486 16.686 1.96336C18.1184 1.88955 18.1818 4.04228 16.7494 4.11609C15.2536 4.1899 13.7706 4.10385 12.2875 3.87012Z" fill="#DAB692"/>
<path d="M23.5066 1.06474L27.0787 0.973398C28.3892 0.934223 28.4588 3.21948 27.1367 3.25866L23.5646 3.35C22.2541 3.38917 22.1845 1.10391 23.5066 1.06474Z" fill="#DAB692"/>
<path d="M33.2002 4.09909C31.7222 4.26523 31.6561 2.04148 33.1342 1.86256C34.6123 1.69641 36.064 1.74756 37.5288 1.96482C39.0069 2.19486 38.4526 4.35472 36.9746 4.12468C35.7209 3.93297 34.4672 3.93294 33.2002 4.0863V4.09909Z" fill="#DAB692"/>
<path d="M43.4085 4.77151C42.0584 4.73359 41.9868 2.5213 43.3488 2.55923L49.2389 2.72358C50.5889 2.7615 50.6606 4.97378 49.2986 4.93586L43.4085 4.77151Z" fill="#DAB692"/>
<path d="M55.3633 5.5962C53.9208 5.67136 53.857 3.4793 55.2994 3.40415C57.227 3.30394 59.1418 3.34149 61.0693 3.52938C62.4863 3.66716 62.5756 5.85922 61.1331 5.72143C59.2056 5.53354 57.2908 5.49599 55.3633 5.5962Z" fill="#DAB692"/>
<path d="M72.7928 5.69388C71.186 5.38581 69.5911 5.28309 67.9608 5.37437C66.6258 5.44282 66.5667 3.44609 67.9017 3.37763C69.7093 3.28635 71.505 3.4233 73.2889 3.7656C74.6003 4.01662 74.1159 5.95632 72.7928 5.7053V5.69388Z" fill="#DAB692"/>
<path d="M79.872 3.47907L85.6245 3.35056C87.0658 3.31202 87.1424 5.56012 85.6883 5.59866L79.9358 5.72717C78.4945 5.76571 78.418 3.51761 79.872 3.47907Z" fill="#DAB692"/>
<path d="M90.993 5.56283C89.6009 5.52491 89.527 3.31262 90.9314 3.35055C92.8654 3.40112 94.8118 3.46433 96.7582 3.5149C98.1502 3.55282 98.2241 5.7651 96.8197 5.72718C94.8857 5.67661 92.9393 5.6134 90.993 5.56283Z" fill="#DAB692"/>
<path d="M103.645 3.44198L107.818 3.35057C109.256 3.31139 109.332 5.59657 107.882 5.63575L103.709 5.72716C102.271 5.76634 102.195 3.48116 103.645 3.44198Z" fill="#DAB692"/>
<path d="M116.388 5.65966C114.946 5.77271 114.882 3.57446 116.324 3.4614C118.519 3.2981 120.688 3.31065 122.883 3.52419C124.312 3.66237 124.388 5.84806 122.946 5.72245C120.764 5.52147 118.582 5.49636 116.388 5.65966Z" fill="#DAB692"/>
<path d="M129.794 3.41657L132.391 3.35057C133.823 3.31096 133.899 5.62155 132.455 5.66116L129.858 5.72716C128.426 5.76677 128.35 3.45618 129.794 3.41657Z" fill="#DAB692"/>
<path d="M138.485 3.49109L144.308 3.35055C145.703 3.31222 145.777 5.54831 144.37 5.58664L138.547 5.72717C137.152 5.76551 137.078 3.52942 138.485 3.49109Z" fill="#DAB692"/>
<path d="M151.992 4.27361L157.745 4.1451C159.186 4.10656 159.263 6.35466 157.809 6.3932L152.056 6.52171C150.615 6.56025 150.538 4.31215 151.992 4.27361Z" fill="#DAB692"/>
<path d="M163.944 5.64858C162.503 5.67465 162.426 3.39373 163.881 3.36766C166.33 3.32856 168.768 3.35463 171.217 3.44586C172.659 3.498 172.736 5.77892 171.281 5.72678C168.831 5.63554 166.394 5.60948 163.944 5.64858Z" fill="#DAB692"/>
<path d="M178.146 3.47907L183.898 3.35056C185.34 3.31202 185.416 5.56012 183.962 5.59866L178.21 5.72717C176.768 5.76571 176.692 3.51761 178.146 3.47907Z" fill="#DAB692"/>
<path d="M181.323 11.126C179.949 11.2133 179.888 9.04213 181.263 8.94231C182.783 8.84248 184.292 8.91739 185.8 9.142C187.163 9.34165 186.652 11.4629 185.289 11.2633C183.975 11.0636 182.649 11.0386 181.323 11.126Z" fill="#DAB692"/>
<path d="M169.481 10.8771C168.054 10.7644 167.978 8.79081 169.417 8.90359C171.073 9.03891 172.743 9.16301 174.399 9.29834C175.826 9.41111 175.902 11.3846 174.462 11.2719C172.806 11.1365 171.137 11.0125 169.481 10.8771Z" fill="#DAB692"/>
<path d="M156.674 9.81917L161.786 9.69074C163.126 9.6522 163.197 11.9004 161.845 11.9389L156.733 12.0673C155.393 12.1059 155.321 9.85771 156.674 9.81917Z" fill="#DAB692"/>
<path d="M144.015 11.3554L147.497 11.2766C148.867 11.2372 148.94 13.535 147.557 13.5744L144.076 13.6532C142.705 13.6926 142.632 11.3948 144.015 11.3554Z" fill="#DAB692"/>
<path d="M129.068 14.2562C127.633 14.1937 127.557 12.0062 129.004 12.0687C130.401 12.1312 131.785 12.1938 133.181 12.2563C134.616 12.3188 134.692 14.5062 133.245 14.4437C131.848 14.3812 130.464 14.3187 129.068 14.2562Z" fill="#DAB692"/>
<path d="M2.99642 8.23332L8.74892 8.10488C10.1902 8.06634 10.2667 10.3145 8.81268 10.3531L3.06018 10.4815C1.61887 10.52 1.54235 8.27186 2.99642 8.23332Z" fill="#DAB692"/>
<path d="M16.3956 8.23332L21.5078 8.10488C22.8481 8.06634 22.9193 10.3145 21.5671 10.3531L16.4549 10.4815C15.1146 10.52 15.0434 8.27186 16.3956 8.23332Z" fill="#DAB692"/>
<path d="M28.2836 9.02793L33.3958 8.89942C34.7362 8.86088 34.8073 11.109 33.4551 11.1475L28.3429 11.276C27.0026 11.3146 26.9314 9.06647 28.2836 9.02793Z" fill="#DAB692"/>
<path d="M41.8915 11.9751C40.4475 12.0627 40.3836 9.87336 41.8276 9.78579C44.2812 9.63566 46.722 9.66069 49.1756 9.87337C50.6068 9.99847 50.6835 12.1878 49.2394 12.0627C46.7859 11.85 44.3451 11.8125 41.8915 11.9751Z" fill="#DAB692"/>
<path d="M54.4563 10.6613L61.9064 10.4853C63.2731 10.4475 63.3457 12.6481 61.9669 12.6858L54.5168 12.8619C53.1501 12.8996 53.0776 10.6991 54.4563 10.6613Z" fill="#DAB692"/>
<path d="M70.3164 10.5892L74.577 10.4853C75.9566 10.4463 76.0298 12.719 74.6381 12.758L70.3775 12.8619C68.998 12.9008 68.9247 10.6282 70.3164 10.5892Z" fill="#DAB692"/>
<path d="M83.835 12.2322L91.1718 12.0679C92.6136 12.03 92.6902 14.2423 91.2356 14.2802L83.8988 14.4445C82.4569 14.4824 82.3804 12.2702 83.835 12.2322Z" fill="#DAB692"/>
<path d="M99.6114 11.4051L104.724 11.2766C106.064 11.2381 106.135 13.4862 104.783 13.5247L99.6707 13.6532C98.3303 13.6917 98.2592 11.4436 99.6114 11.4051Z" fill="#DAB692"/>
<path d="M112.368 14.3532C111 14.4408 110.939 12.2506 112.308 12.163C114.803 12.0128 117.286 12.0378 119.769 12.2506C121.125 12.3632 121.198 14.5534 119.829 14.4408C117.334 14.2406 114.851 14.2155 112.368 14.3532Z" fill="#DAB692"/>
<path d="M4.57296 16.5777C3.22494 16.5289 3.15334 14.3967 4.51329 14.4454C6.48165 14.5307 8.43807 14.6038 10.4064 14.6891C11.7545 14.7378 11.826 16.8701 10.4661 16.8214C8.49774 16.7361 6.54131 16.6629 4.57296 16.5777Z" fill="#DAB692"/>
<path d="M18.0322 18.2994C16.696 18.3877 16.6369 16.18 17.9731 16.0916C19.7824 15.9655 21.5562 16.0412 23.3536 16.2557C24.6781 16.4197 24.1814 18.5517 22.857 18.4003C21.2487 18.2111 19.6405 18.1858 18.0322 18.2994Z" fill="#DAB692"/>
<path d="M30.6756 16.978L37.3432 16.8255C38.7032 16.7873 38.7754 19.0114 37.4033 19.0496L30.7357 19.2021C29.3757 19.2402 29.3035 17.0161 30.6756 16.978Z" fill="#DAB692"/>
<path d="M45.8453 19.7941C44.4261 19.6453 44.3366 17.4748 45.7814 17.6236C47.9677 17.8592 50.154 17.8841 52.3404 17.7104C53.7851 17.5988 53.849 19.7569 52.4043 19.8809C50.2052 20.0546 48.0316 20.0298 45.8453 19.7941Z" fill="#DAB692"/>
<path d="M60.1244 20.6937C58.6805 20.6806 58.6039 18.3946 60.0605 18.4076C63.0377 18.4338 66.0149 18.473 68.9793 18.4991C70.4232 18.5122 70.4998 20.7982 69.0432 20.7851C66.066 20.759 63.0888 20.7198 60.1244 20.6937Z" fill="#DAB692"/>
<path d="M76.7277 21.3942C75.3357 21.2567 75.2611 19.0824 76.6655 19.2073C79.1388 19.4447 81.5996 19.4572 84.0728 19.2573C85.4772 19.1448 85.5394 21.3317 84.135 21.4441C81.6618 21.6441 79.2009 21.6191 76.7277 21.3942Z" fill="#DAB692"/>
<path d="M94.1532 21.5269C92.7739 21.5906 92.7006 19.3737 94.0922 19.2973C97.1072 19.1572 100.11 19.1699 103.113 19.3482C104.48 19.4247 104.565 21.6542 103.174 21.5778C100.159 21.3994 97.156 21.3867 94.1532 21.5269Z" fill="#DAB692"/>
<path d="M116.282 22.3523C114.468 22.0539 112.666 21.9506 110.839 22.0195C109.405 22.0654 109.329 20.0682 110.775 20.0108C112.806 19.9419 114.811 20.0796 116.815 20.401C118.237 20.6306 117.704 22.5819 116.282 22.3523Z" fill="#DAB692"/>
<path d="M125.046 20.1224L130.799 19.9939C132.24 19.9554 132.317 22.2036 130.862 22.2421L125.11 22.3705C123.669 22.4091 123.592 20.1609 125.046 20.1224Z" fill="#DAB692"/>
<path d="M138.566 22.3612C137.141 22.5348 137.077 20.3646 138.502 20.191C140.791 19.9058 143.055 19.9429 145.345 20.2157C146.769 20.3893 146.235 22.4975 144.81 22.3239C142.725 22.0635 140.639 22.1007 138.566 22.3612Z" fill="#DAB692"/>
<path d="M152.778 21.4389C151.428 21.4005 151.356 19.1768 152.718 19.2024C154.677 19.2535 156.649 19.3047 158.608 19.343C159.958 19.3813 160.03 21.6051 158.668 21.5795C156.709 21.5284 154.737 21.4772 152.778 21.4389Z" fill="#DAB692"/>
<path d="M168.46 20.5748C168.371 20.6235 168.281 20.6843 168.167 20.7086C167.426 20.8791 166.851 20.7817 166.315 20.2461C165.676 19.6131 166.034 18.3836 167.055 18.4079C169.239 18.4566 171.423 18.5175 173.594 18.5662C175.037 18.6027 175.114 20.733 173.658 20.6965C171.921 20.6478 170.197 20.6113 168.46 20.5626V20.5748Z" fill="#DAB692"/>
<path d="M179.829 19.8418C178.337 19.9415 178.271 17.7594 179.763 17.6596C181.229 17.5599 182.694 17.6347 184.147 17.8592C185.626 18.0836 185.071 20.1909 183.592 19.9789C182.338 19.7919 181.097 19.7545 179.829 19.8418Z" fill="#DAB692"/>
<path d="M178.162 27.8872C176.583 27.5256 175.016 27.4353 173.4 27.5935C172.017 27.7291 171.968 25.7518 173.339 25.6162C175.126 25.4467 176.914 25.571 178.676 25.9665C180.023 26.2715 179.521 28.1923 178.162 27.8872Z" fill="#DAB692"/>
<path d="M166.296 27.1084C164.437 26.789 162.578 26.6863 160.696 26.7776C159.349 26.846 159.29 24.8495 160.636 24.781C162.709 24.6783 164.759 24.8153 166.796 25.1689C168.13 25.3971 167.63 27.3252 166.296 27.1084Z" fill="#DAB692"/>
<path d="M145.932 27.8993C144.637 28.1475 144.014 26.0749 145.32 25.8267C147.214 25.4668 149.061 25.442 150.955 25.7895C152.273 26.0253 151.779 28.1351 150.461 27.8993C148.955 27.6263 147.426 27.6262 145.92 27.9117L145.932 27.8993Z" fill="#DAB692"/>
<path d="M136.146 28.696C134.3 28.329 132.467 28.2602 130.609 28.4437C129.218 28.5813 129.169 26.5859 130.547 26.4368C132.602 26.2304 134.645 26.3336 136.663 26.7465C138.029 27.0217 137.512 28.9598 136.146 28.6845V28.696Z" fill="#DAB692"/>
<path d="M113.891 27.2779L120.559 27.1254C121.919 27.0873 121.991 29.3114 120.619 29.3495L113.951 29.502C112.591 29.5402 112.519 27.3161 113.891 27.2779Z" fill="#DAB692"/>
<path d="M100.443 27.266L106.267 27.1254C107.661 27.0871 107.735 29.3232 106.329 29.3615L100.505 29.502C99.1108 29.5404 99.0368 27.3043 100.443 27.266Z" fill="#DAB692"/>
<path d="M83.0383 27.8521C81.6781 27.9524 81.6179 25.7714 82.9782 25.6586C85.2051 25.4831 87.4321 25.5081 89.659 25.7212C91.0072 25.8466 91.0794 28.0401 89.7192 27.9147C87.4922 27.7016 85.2653 27.6766 83.0383 27.8521Z" fill="#DAB692"/>
<path d="M74.2822 28.6846C72.2057 28.294 70.1291 28.2365 68.0271 28.5007C66.6003 28.6731 66.5494 26.6623 67.9634 26.49C70.2565 26.2142 72.5369 26.3062 74.8172 26.7428C76.2313 27.0071 75.6963 28.9604 74.2822 28.6846Z" fill="#DAB692"/>
<path d="M54.5241 28.7028C53.1359 28.8621 53.0867 26.7174 54.4627 26.5581C56.1458 26.362 57.8289 26.3007 59.5121 26.3497C60.9003 26.3987 60.974 28.5311 59.5735 28.4944C57.8781 28.4454 56.2073 28.5067 54.5241 28.7028Z" fill="#DAB692"/>
<path d="M37.0727 26.8675C35.7109 26.9384 35.6507 24.8706 37.0125 24.7997C39.6034 24.6697 42.1582 24.7879 44.7371 25.1069C46.0868 25.2724 45.5807 27.2811 44.231 27.1157C41.8569 26.8203 39.4708 26.7494 37.0727 26.8675Z" fill="#DAB692"/>
<path d="M22.7359 24.8767L27.8481 24.7483C29.1884 24.7097 29.2596 26.9579 27.9074 26.9964L22.7952 27.1249C21.4549 27.1634 21.3837 24.9152 22.7359 24.8767Z" fill="#DAB692"/>
<path d="M6.07088 23.2571L9.64297 23.1657C10.9535 23.1265 11.0231 25.4117 9.70094 25.4508L6.12889 25.5422C4.81836 25.5814 4.74875 23.2962 6.07088 23.2571Z" fill="#DAB692"/>
<path d="M11.8707 33.1949C11.5043 33.511 11.0241 33.5344 10.5692 33.3471C10.2281 33.2066 10.0133 32.9375 9.91221 32.6214C9.81113 32.2937 9.87428 31.8489 10.1649 31.6265C10.923 31.0296 11.8833 31.1818 12.831 31.1584C14.1198 31.135 15.3959 31.1116 16.6847 31.0882C18.1125 31.0648 18.1884 33.1013 16.7479 33.1364C15.1559 33.1715 13.4754 33.0779 11.8707 33.2067V33.1949Z" fill="#DAB692"/>
<path d="M25.9821 34.2062C24.6141 34.2947 24.5536 32.0967 25.9216 31.9956C28.4154 31.8314 30.897 31.844 33.3787 32.0461C34.7346 32.1472 34.8194 34.3578 33.4393 34.2567C30.9455 34.0673 28.4638 34.042 25.9821 34.2062Z" fill="#DAB692"/>
<path d="M38.6762 34.0949C37.2967 34.0444 37.2234 31.8328 38.6151 31.8834C40.0313 31.9339 41.4596 31.9971 42.8757 32.0476C44.2553 32.0982 44.3285 34.3098 42.9368 34.2592C41.5206 34.2087 40.0923 34.1455 38.6762 34.0949Z" fill="#DAB692"/>
<path d="M49.0256 34.7222C47.5861 34.652 47.5097 32.6054 48.9619 32.6756C51.1403 32.7808 53.3314 32.8978 55.5097 33.0031C56.9492 33.0732 57.0256 35.1198 55.5734 35.0496C53.3951 34.9444 51.204 34.8274 49.0256 34.7222Z" fill="#DAB692"/>
<path d="M63.2126 35.714C61.8745 35.6755 61.8033 33.4396 63.1533 33.4653C64.8585 33.5039 66.5637 33.5553 68.2689 33.5938C69.607 33.6324 69.678 35.8682 68.3281 35.8425C66.6229 35.8039 64.9178 35.7526 63.2126 35.714Z" fill="#DAB692"/>
<path d="M78.2499 36.6274C76.933 36.7993 76.8742 34.6631 78.1912 34.4789C79.6374 34.2825 81.0837 34.2211 82.5417 34.2825C83.8704 34.3316 83.9409 36.4801 82.6005 36.431C81.1425 36.3696 79.6962 36.431 78.2499 36.6274Z" fill="#DAB692"/>
<path d="M91.027 36.5166C89.5848 36.6047 89.521 34.4027 90.9632 34.3146C92.6224 34.2139 94.2816 34.2516 95.9409 34.4278C97.3576 34.5788 97.447 36.7808 96.0047 36.6298C94.3455 36.4537 92.6862 36.416 91.027 36.5166Z" fill="#DAB692"/>
<path d="M102.061 34.3764L107.025 34.2602C108.463 34.2214 108.54 36.4817 107.089 36.5205L102.124 36.6368C100.686 36.6755 100.61 34.4152 102.061 34.3764Z" fill="#DAB692"/>
<path d="M118.748 35.8297C116.888 35.4651 115.028 35.3853 113.144 35.5334C111.797 35.6474 111.738 33.6536 113.085 33.5396C115.159 33.3687 117.21 33.494 119.249 33.8928C120.572 34.1549 120.083 36.0803 118.748 35.8183V35.8297Z" fill="#DAB692"/>
<path d="M125.043 33.7943C127.227 33.6891 129.411 33.5721 131.595 33.4669C133.038 33.3967 133.102 35.4317 131.659 35.5135C129.475 35.6188 127.291 35.7357 125.107 35.8409C123.663 35.9111 123.6 33.8762 125.043 33.7943Z" fill="#DAB692"/>
<path d="M137.483 34.8244C136.105 34.6606 136.622 32.5302 138 32.6815C139.833 32.8958 141.678 32.8958 143.524 32.7445C144.914 32.6311 144.975 34.8244 143.585 34.9505C141.543 35.1269 139.525 35.0639 137.483 34.8244Z" fill="#DAB692"/>
<path d="M149.668 33.8607C148.241 33.7479 148.164 31.7744 149.604 31.8872C151.26 32.0225 152.929 32.1466 154.585 32.2819C156.012 32.3947 156.089 34.3682 154.649 34.2554C152.993 34.1201 151.324 33.996 149.668 33.8607Z" fill="#DAB692"/>
<path d="M163.085 31.9744L167.258 31.883C168.696 31.8438 168.772 34.129 167.322 34.1682L163.149 34.2596C161.711 34.2988 161.635 32.0136 163.085 31.9744Z" fill="#DAB692"/>
<path d="M176.465 32.7657L180.037 32.6743C181.348 32.6351 181.417 34.9203 180.095 34.9595L176.523 35.0509C175.213 35.0901 175.143 32.8049 176.465 32.7657Z" fill="#DAB692"/>
<path d="M6.95911 37.5571L12.7116 37.4286C14.1529 37.3901 14.2295 39.6382 12.7754 39.6767L7.02291 39.8052C5.58159 39.8438 5.50504 37.5957 6.95911 37.5571Z" fill="#DAB692"/>
<path d="M18.0351 39.4265C16.7073 39.3353 16.6243 37.34 17.9759 37.4312C19.6831 37.5566 21.3904 37.682 23.0976 37.8074C24.4255 37.8986 24.5085 39.8939 23.1569 39.8027C21.4497 39.6773 19.7424 39.5519 18.0351 39.4265Z" fill="#DAB692"/>
<path d="M28.4156 40.5952C26.9753 40.7174 26.9116 38.5917 28.3519 38.4573C30.5314 38.2618 32.711 38.1885 34.9033 38.2373C36.3436 38.2618 36.4201 40.3997 34.967 40.3752C32.7747 40.3386 30.5951 40.412 28.4156 40.5952Z" fill="#DAB692"/>
<path d="M41.8207 40.5697C40.4683 40.6839 40.4085 38.4753 41.7609 38.3484C43.7356 38.1707 45.6983 38.1834 47.661 38.3737C49.0014 38.5007 49.0732 40.722 47.7208 40.595C45.7461 40.4046 43.7834 40.4047 41.8207 40.5697Z" fill="#DAB692"/>
<path d="M54.5973 40.2186C53.996 40.1613 53.4824 39.8293 53.4573 39.2455C53.4323 38.7532 53.9334 38.1693 54.5221 38.2266C55.9001 38.3525 57.278 38.4785 58.6559 38.6044C59.2572 38.6616 59.7707 38.9936 59.7958 39.5775C59.8208 40.0697 59.3198 40.6536 58.731 40.5964C57.3531 40.4704 55.9752 40.3445 54.5973 40.2186Z" fill="#DAB692"/>
<path d="M67.1769 42.0096C65.8366 41.9593 65.7654 39.7713 67.1176 39.809C68.8256 39.8719 70.5336 39.9222 72.2298 39.9851C73.5701 40.0354 73.6413 42.2234 72.2891 42.1856C70.5811 42.1228 68.8731 42.0725 67.1769 42.0096Z" fill="#DAB692"/>
<path d="M79.0476 42.8521C77.7237 42.9404 77.6651 40.7324 78.989 40.644C80.5355 40.5431 82.0585 40.6188 83.5932 40.8333C84.9054 41.0099 84.4133 43.1549 83.1012 42.9656C81.7539 42.7764 80.3949 42.7512 79.0476 42.8521Z" fill="#DAB692"/>
<path d="M88.5159 40.7288L93.6281 40.6003C94.9685 40.5618 95.0396 42.81 93.6874 42.8485L88.5752 42.9769C87.2349 43.0155 87.1637 40.7673 88.5159 40.7288Z" fill="#DAB692"/>
<path d="M100.508 43.6401C99.1099 43.6144 99.0355 41.3657 100.447 41.3914C102.65 41.4299 104.853 41.4813 107.056 41.5198C108.455 41.5455 108.529 43.7942 107.118 43.7685C104.915 43.73 102.712 43.6786 100.508 43.6401Z" fill="#DAB692"/>
<path d="M114.661 41.4956L118.998 41.3917C120.327 41.3527 120.397 43.6254 119.057 43.6643L114.719 43.7683C113.391 43.8072 113.321 41.5345 114.661 41.4956Z" fill="#DAB692"/>
<path d="M124.985 41.0167C127.204 40.8825 129.436 40.7371 131.656 40.6028C133.02 40.5133 133.08 42.4711 131.717 42.5605C129.497 42.6948 127.265 42.8402 125.045 42.9745C123.682 43.064 123.621 41.1062 124.985 41.0167Z" fill="#DAB692"/>
<path d="M140.03 41.5201L145.143 41.3916C146.483 41.3531 146.554 43.6013 145.202 43.6398L140.09 43.7683C138.749 43.8068 138.678 41.5586 140.03 41.5201Z" fill="#DAB692"/>
<path d="M152.816 42.8128C151.417 42.7749 151.343 40.5748 152.754 40.6001C154.957 40.6506 157.16 40.7139 159.363 40.7644C160.762 40.8024 160.836 43.0025 159.425 42.9772C157.222 42.9266 155.019 42.8634 152.816 42.8128Z" fill="#DAB692"/>
<path d="M166.284 41.8174C164.898 41.7371 164.811 39.7415 166.222 39.8103C168.424 39.9364 170.626 40.0511 172.841 40.1773C174.227 40.2576 174.313 42.2532 172.903 42.1844C170.701 42.0582 168.498 41.9435 166.284 41.8174Z" fill="#DAB692"/>
<path d="M181.385 41.3458C180.578 41.1475 179.783 41.1351 178.964 41.259C178.407 41.3458 177.908 40.7262 177.885 40.2058C177.861 39.5615 178.336 39.1898 178.893 39.1031C179.89 38.942 180.886 39.0039 181.871 39.2518C183.176 39.5739 182.69 41.6803 181.373 41.3582L181.385 41.3458Z" fill="#DAB692"/>
<path d="M15.6813 46.9218C14.1046 46.659 12.5401 46.5447 10.9389 46.5676C9.5577 46.5904 9.48438 44.5906 10.8778 44.5677C12.6623 44.5334 14.4346 44.682 16.1947 44.9791C17.5637 45.2076 17.0503 47.1504 15.6813 46.9218Z" fill="#DAB692"/>
<path d="M21.9345 44.6672L26.2723 44.5634C27.6006 44.5244 27.6711 46.7972 26.331 46.8361L21.9933 46.94C20.665 46.9789 20.5944 44.7062 21.9345 44.6672Z" fill="#DAB692"/>
<path d="M35.4845 44.6421L38.8713 44.5634C40.3047 44.524 40.3808 46.8218 38.9347 46.8612L35.5479 46.94C34.1145 46.9793 34.0384 44.6815 35.4845 44.6421Z" fill="#DAB692"/>
<path d="M47.3165 44.97C49.5364 44.8351 51.7684 44.7001 53.9884 44.5652C55.3517 44.4865 55.412 46.4433 54.0487 46.5333C51.8288 46.6683 49.5967 46.8032 47.3768 46.9381C46.0135 47.0169 45.9532 45.06 47.3165 44.97Z" fill="#DAB692"/>
<path d="M63.155 45.4831L68.2672 45.3547C69.6075 45.3161 69.6786 47.5643 68.3265 47.6028L63.2142 47.7313C61.8739 47.7698 61.8028 45.5216 63.155 45.4831Z" fill="#DAB692"/>
<path d="M76.7295 47.6887C75.3286 47.8024 75.2666 45.5917 76.6675 45.478C78.8742 45.3011 81.0808 45.3137 83.2875 45.5158C84.676 45.6422 84.7504 47.8529 83.3496 47.7266C81.1429 47.5244 78.9362 47.5118 76.7295 47.6887Z" fill="#DAB692"/>
<path d="M89.3639 50.1014C88.0168 50.253 87.9692 48.0553 89.3044 47.8911C91.3668 47.6511 93.4053 47.689 95.4677 47.9543C96.8029 48.1184 96.3022 50.2656 94.967 50.0888C93.0954 49.8488 91.2237 49.8741 89.3639 50.0888V50.1014Z" fill="#DAB692"/>
<path d="M102.855 48.6548L108.608 48.5264C110.049 48.4878 110.126 50.736 108.672 50.7745L102.919 50.903C101.478 50.9415 101.401 48.6933 102.855 48.6548Z" fill="#DAB692"/>
<path d="M113.916 48.6669L119.74 48.5264C121.134 48.488 121.208 50.7241 119.801 50.7624L113.978 50.903C112.584 50.9413 112.51 48.7052 113.916 48.6669Z" fill="#DAB692"/>
<path d="M129.073 50.6235C127.631 50.6473 127.555 48.5736 129.009 48.5379C131.46 48.4902 133.91 48.5855 136.36 48.8119C137.777 48.943 137.866 51.0286 136.424 50.8975C133.974 50.6711 131.536 50.5758 129.073 50.6235Z" fill="#DAB692"/>
<path d="M144.918 50.8984C143.477 51.0209 143.414 48.8779 144.854 48.7555C147.033 48.5718 149.213 48.4983 151.405 48.5351C152.846 48.5596 152.922 50.7025 151.469 50.678C149.277 50.6413 147.097 50.7147 144.918 50.8984Z" fill="#DAB692"/>
<path d="M157.533 51.554C156.183 51.5157 156.111 49.2918 157.473 49.3174C159.433 49.3685 161.404 49.4069 163.363 49.458C164.713 49.4963 164.785 51.7201 163.423 51.6946C161.464 51.6434 159.492 51.6051 157.533 51.554Z" fill="#DAB692"/>
<path d="M170.939 47.8603L176.051 47.7318C177.392 47.6933 177.463 49.9415 176.111 49.98L170.998 50.1084C169.658 50.147 169.587 47.8988 170.939 47.8603Z" fill="#DAB692"/>
<path d="M16.4637 50.1878L19.8506 50.109C21.2839 50.0696 21.36 52.3674 19.914 52.4068L16.5271 52.4856C15.0937 52.525 15.0176 50.2272 16.4637 50.1878Z" fill="#DAB692"/>
<path d="M26.6897 51.0074L31.0274 50.9035C32.3558 50.8646 32.4263 53.1373 31.0862 53.1763L26.7485 53.2801C25.4201 53.3191 25.3496 51.0463 26.6897 51.0074Z" fill="#DAB692"/>
<path d="M40.2356 54.8358C38.8833 54.9501 38.8234 52.7415 40.1757 52.6146C42.1504 52.4369 44.1132 52.4496 46.0759 52.64C47.4163 52.7669 47.4882 54.9882 46.1358 54.8612C44.1611 54.6709 42.1984 54.6708 40.2356 54.8358Z" fill="#DAB692"/>
<path d="M52.9211 55.6537C51.5623 55.7634 51.5021 53.6421 52.8609 53.5202C55.0856 53.3373 57.2983 53.252 59.5349 53.2885C60.8938 53.3129 60.9659 55.4342 59.5951 55.4221C57.3704 55.3855 55.1458 55.4586 52.9211 55.6537Z" fill="#DAB692"/>
<path d="M66.3644 53.4212L72.188 53.2807C73.5822 53.2424 73.6562 55.4785 72.2497 55.5168L66.4262 55.6573C65.032 55.6957 64.9579 53.4596 66.3644 53.4212Z" fill="#DAB692"/>
<path d="M81.4729 56.2603C80.0933 56.1978 80.0201 54.0103 81.4118 54.0728C82.828 54.1353 84.2563 54.1979 85.6724 54.2604C87.052 54.3229 87.1252 56.5103 85.7335 56.4478C84.3173 56.3853 82.889 56.3228 81.4729 56.2603Z" fill="#DAB692"/>
<path d="M93.3562 58.4547C91.9826 58.4547 91.9097 56.4487 93.2954 56.4487C96.0547 56.4487 98.7897 56.5633 101.537 56.8155C102.898 56.9416 102.971 58.9362 101.598 58.8215C98.8504 58.5808 96.1033 58.4547 93.3562 58.4547Z" fill="#DAB692"/>
<path d="M109.168 56.6135L116.562 56.4492C117.966 56.4112 118.041 58.6235 116.624 58.6614L109.231 58.8258C107.826 58.8637 107.752 56.6514 109.168 56.6135Z" fill="#DAB692"/>
<path d="M121.113 58.8222C119.71 58.9319 119.648 56.7984 121.051 56.6886C123.509 56.5058 125.98 56.4204 128.451 56.457C129.854 56.4692 129.928 58.6027 128.513 58.5905C126.042 58.5662 123.584 58.6393 121.113 58.8222Z" fill="#DAB692"/>
<path d="M136.972 58.7099C135.564 58.6841 135.49 56.4358 136.909 56.4487C139.636 56.4875 142.364 56.5263 145.091 56.5651C146.498 56.5909 146.573 58.8391 145.153 58.8262C142.426 58.7875 139.699 58.7487 136.972 58.7099Z" fill="#DAB692"/>
<path d="M151.989 58.6521C150.64 58.564 150.556 56.3632 151.929 56.4513C154.157 56.5896 156.384 56.6524 158.6 56.6147C159.961 56.5895 160.033 58.7903 158.66 58.8155C156.432 58.8532 154.205 58.7904 151.989 58.6521Z" fill="#DAB692"/>
<path d="M166.318 57.9939C164.875 58.0707 164.811 55.8437 166.254 55.7541C168.707 55.6134 171.146 55.6262 173.599 55.7926C175.029 55.8822 175.118 58.1219 173.662 58.0323C171.21 57.866 168.771 57.8531 166.318 57.9939Z" fill="#DAB692"/>
<path d="M14.1508 60.0143C12.7226 59.9239 12.6333 57.9578 14.0871 58.0369C16.2677 58.1725 18.4612 58.2967 20.6418 58.4323C22.0701 58.5227 22.1594 60.4889 20.7056 60.4098C18.5249 60.2742 16.3315 60.1499 14.1508 60.0143Z" fill="#DAB692"/>
<path d="M26.7898 60.4038C25.3961 60.5612 25.3467 58.4425 26.728 58.2851C28.6644 58.0671 30.6008 57.9945 32.5618 58.055C33.9555 58.1035 34.0295 60.2101 32.6235 60.1737C30.6748 60.1132 28.7384 60.198 26.7898 60.4038Z" fill="#DAB692"/>
<path d="M40.1716 59.7493L45.2838 59.6209C46.6241 59.5823 46.6952 61.8305 45.3431 61.8691L40.2308 61.9975C38.8905 62.036 38.8194 59.7879 40.1716 59.7493Z" fill="#DAB692"/>
<path d="M51.267 60.5406L56.3792 60.4122C57.7196 60.3736 57.7907 62.6218 56.4385 62.6604L51.3263 62.7888C49.986 62.8273 49.9148 60.5792 51.267 60.5406Z" fill="#DAB692"/>
<path d="M64.7486 59.7614L70.6356 59.6209C71.9877 59.5825 72.0595 61.8186 70.6954 61.857L64.8084 61.9975C63.4563 62.0358 63.3845 59.7997 64.7486 59.7614Z" fill="#DAB692"/>
<path d="M76.6366 60.5528L82.5236 60.4122C83.8756 60.3739 83.9475 62.6099 82.5834 62.6482L76.6964 62.7888C75.3443 62.8271 75.2725 60.5911 76.6366 60.5528Z" fill="#DAB692"/>
<path d="M88.5626 61.3711L95.9562 61.2067C97.3604 61.1688 97.4349 63.3811 96.0183 63.419L88.6248 63.5833C87.2206 63.6213 87.146 61.409 88.5626 61.3711Z" fill="#DAB692"/>
<path d="M104.493 64.1718C103.073 64.0232 102.984 61.8563 104.429 62.0049C106.615 62.2277 108.801 62.2649 110.988 62.1287C112.432 62.0296 112.496 64.1966 111.052 64.2956C108.853 64.4318 106.679 64.3947 104.493 64.1718Z" fill="#DAB692"/>
<path d="M120.257 63.7244L126.08 63.5839C127.474 63.5456 127.548 65.7816 126.142 65.82L120.318 65.9605C118.924 65.9988 118.85 63.7628 120.257 63.7244Z" fill="#DAB692"/>
<path d="M132.105 62.9178L137.217 62.7894C138.558 62.7508 138.629 64.999 137.277 65.0375L132.164 65.166C130.824 65.2045 130.753 62.9563 132.105 62.9178Z" fill="#DAB692"/>
<path d="M145.597 62.9654L153.048 62.7893C154.414 62.7516 154.487 64.9522 153.108 64.9899L145.658 65.166C144.291 65.2037 144.219 63.0031 145.597 62.9654Z" fill="#DAB692"/>
<path d="M160.641 62.4052C162.606 62.2703 164.571 62.1354 166.535 62.0005C167.889 61.9106 167.949 63.8776 166.595 63.9675C164.631 64.1024 162.666 64.2373 160.701 64.3722C159.348 64.4621 159.288 62.4951 160.641 62.4052Z" fill="#DAB692"/>
<path d="M19.702 67.406C18.2625 67.3804 18.186 65.1439 19.6383 65.1695L26.1861 65.3101C27.6255 65.3357 27.702 67.5722 26.2497 67.5466L19.702 67.406Z" fill="#DAB692"/>
<path d="M31.5883 67.8336C30.1576 67.7587 30.0682 65.8879 31.5245 65.9628C34.7691 66.1338 38.001 66.2941 41.2457 66.4652C42.6764 66.54 42.7658 68.4108 41.3095 68.336C38.0649 68.1649 34.833 68.0046 31.5883 67.8336Z" fill="#DAB692"/>
<path d="M48.9596 69.8191C47.5993 69.9064 47.5391 67.7243 48.8993 67.637C51.1263 67.4874 53.3533 67.5248 55.5802 67.7368C56.9284 67.8615 57.0007 70.0436 55.6404 69.9189C53.4135 69.7069 51.1986 69.6695 48.9596 69.8191Z" fill="#DAB692"/>
<path d="M38.6511 75.3636C37.298 75.4635 37.2381 73.2774 38.5912 73.1775C40.567 73.0401 42.5308 73.065 44.4946 73.2774C45.8238 73.4148 45.9076 75.6009 44.5545 75.4634C42.5907 75.2636 40.6269 75.2262 38.6511 75.3636Z" fill="#DAB692"/>
<path d="M25.1118 72.6704L30.2272 72.3038C31.5714 72.2122 31.6309 74.2056 30.2866 74.3087L25.1712 74.6753C23.827 74.7669 23.7675 72.7735 25.1118 72.6704Z" fill="#DAB692"/>
<path d="M31.5373 81.0072C30.1599 81.1943 30.0985 79.0107 31.4758 78.8236C33.5173 78.5491 35.5343 78.5989 37.5881 78.8735C38.9655 79.0606 38.4489 81.1818 37.0715 80.9947C35.2268 80.7451 33.382 80.7701 31.5373 80.9947V81.0072Z" fill="#DAB692"/>
<path d="M37.0419 84.5876C39.2505 84.452 41.4468 84.3277 43.6555 84.1921C45.0576 84.113 45.1196 86.0792 43.7175 86.1696C41.5088 86.3052 39.3125 86.4295 37.1039 86.5651C35.7017 86.6442 35.6397 84.678 37.0419 84.5876Z" fill="#DAB692"/>
<path d="M44.9411 79.5852L51.6087 79.4327C52.9687 79.3946 53.0409 81.6187 51.6689 81.6569L45.0012 81.8094C43.6412 81.8475 43.569 79.6234 44.9411 79.5852Z" fill="#DAB692"/>
<path d="M43.402 92.6901C42.0485 92.8184 42.0006 90.7876 43.3422 90.6475C45.678 90.4258 47.9778 90.5192 50.2896 90.916C51.6312 91.1378 51.1281 93.122 49.7866 92.8885C47.6664 92.5267 45.5462 92.48 43.402 92.6901Z" fill="#DAB692"/>
<path d="M49.5372 88.1997C49.3725 87.6977 49.6891 86.9631 50.2716 86.8652C51.753 86.6203 53.2217 86.5101 54.7285 86.5958C56.1467 86.6815 56.2353 88.8242 54.7918 88.7385C53.5003 88.665 52.1961 88.7018 50.9173 88.9222C50.3221 89.0201 49.7271 88.7997 49.5245 88.1997H49.5372Z" fill="#DAB692"/>
<path d="M50.584 75.3173C49.1855 75.2156 49.0981 73.0058 50.5215 73.0947C53.5183 73.2979 56.5025 73.2979 59.4992 73.0947C60.9102 73.0058 60.9727 75.2156 59.5617 75.3173C56.565 75.5205 53.5807 75.5205 50.584 75.3173Z" fill="#DAB692"/>
<path d="M58.4473 83.3646C57.9193 83.2616 57.6804 82.9755 57.4793 82.552C57.3285 82.2544 57.4793 81.7966 57.7307 81.5791C58.4724 80.9496 59.4907 81.0984 60.446 81.087C61.7157 81.0641 62.9727 81.0412 64.2423 81.0183C65.6628 80.9954 65.7382 82.9869 64.3052 83.0213C62.7464 83.0441 61.0871 82.9526 59.5158 83.0785C59.2518 83.3303 58.837 83.4447 58.4473 83.3761V83.3646Z" fill="#DAB692"/>
<path d="M61.6416 67.6632L66.606 67.5469C68.0444 67.5082 68.1208 69.7685 66.6696 69.8072L61.7053 69.9235C60.2669 69.9623 60.1905 67.7019 61.6416 67.6632Z" fill="#DAB692"/>
<path d="M65.1951 77.8246C63.8022 78.081 63.1311 76.0417 64.5367 75.7853C66.0183 75.5166 67.4871 75.4067 68.994 75.5044C70.4122 75.6021 70.5009 77.7268 69.0573 77.6414C67.753 77.5559 66.4614 77.6048 65.1824 77.8368L65.1951 77.8246Z" fill="#DAB692"/>
<path d="M63.9853 90.5179C62.6019 90.3709 61.231 90.2238 59.8476 90.0768C59.2439 90.0089 58.9044 89.3529 59.0302 88.8779C59.1811 88.3011 59.7722 88.0975 60.3633 88.1654C61.7467 88.3124 63.1175 88.4594 64.5009 88.6065C65.1046 88.6743 65.4442 89.3303 65.3184 89.8053C65.1675 90.3822 64.5764 90.5857 63.9853 90.5179Z" fill="#DAB692"/>
<path d="M54.5629 95.9254C53.1305 96.0253 53.0672 93.8417 54.4996 93.7418C55.9953 93.642 57.4784 93.7169 58.9615 93.9415C60.3812 94.1536 59.8488 96.2624 58.4291 96.0627C57.1361 95.8756 55.8559 95.8506 54.5629 95.9379V95.9254Z" fill="#DAB692"/>
<path d="M71.115 97.6357C69.3098 97.2752 67.5048 97.185 65.6615 97.3202C64.2251 97.4329 64.1615 95.4613 65.598 95.3487C67.6319 95.191 69.6531 95.3262 71.6488 95.7205C73.0599 96.0021 72.526 97.9061 71.115 97.6357Z" fill="#DAB692"/>
<path d="M70.4147 92.0395C68.9809 92.1783 68.9175 89.9698 70.3512 89.831C72.1148 89.6669 73.8531 89.7175 75.604 89.9572C77.025 90.1465 76.4921 92.2793 75.071 92.1027C73.5231 91.9007 71.9626 91.9007 70.4147 92.0395Z" fill="#DAB692"/>
<path d="M68.7924 84.7928C67.4128 84.7303 67.3395 82.5428 68.7313 82.6053L72.9919 82.7927C74.3714 82.8552 74.4446 85.0427 73.0529 84.9802C71.6368 84.9177 70.2085 84.8553 68.7924 84.7928Z" fill="#DAB692"/>
<path d="M73.4933 77.1718L78.5324 77.0556C79.9212 77.0168 79.9949 79.2772 78.5938 79.316L73.5548 79.4322C72.1659 79.4709 72.0921 77.2105 73.4933 77.1718Z" fill="#DAB692"/>
<path d="M71.851 69.221L75.4231 69.1295C76.7336 69.0904 76.8032 71.3756 75.481 71.4147L71.909 71.5061C70.5984 71.5453 70.5289 69.2601 71.851 69.221Z" fill="#DAB692"/>
<path d="M81.4283 72.2682C81.0528 72.1982 80.7291 72.0116 80.5608 71.6967C80.3536 71.3001 80.3018 70.7869 80.7032 70.4604C81.3894 69.8772 82.2828 69.9821 83.1891 69.9704C84.2638 69.9588 85.3255 69.9355 86.4001 69.9238C87.8632 69.9005 87.9409 71.9416 86.4649 71.965C85.1831 71.9883 83.8106 71.9067 82.5159 72C82.244 72.2449 81.8167 72.3499 81.4283 72.2799V72.2682Z" fill="#DAB692"/>
<path d="M93.3741 72.0567C91.9775 72.0079 91.9033 69.8757 93.3123 69.9244C95.5123 70.0097 97.7247 70.0828 99.9247 70.1681C101.321 70.2169 101.395 72.3491 99.9865 72.3004C97.7865 72.2151 95.5741 72.142 93.3741 72.0567Z" fill="#DAB692"/>
<path d="M107.579 70.0766L114.189 69.9241C115.587 69.8859 115.662 72.1101 114.251 72.1482L107.641 72.3007C106.243 72.3388 106.168 70.1147 107.579 70.0766Z" fill="#DAB692"/>
<path d="M85.4232 79.3824C84.0475 79.5353 83.9988 77.306 85.3624 77.1531C86.8841 76.9875 88.3937 77.0385 89.9033 77.255C91.2668 77.4589 90.7555 79.6118 89.392 79.4207C88.065 79.2296 86.738 79.2296 85.4232 79.3824Z" fill="#DAB692"/>
<path d="M80.6193 83.4997L84.8799 83.3958C86.2594 83.3568 86.3327 85.6295 84.941 85.6684L80.6803 85.7724C79.3008 85.8113 79.2276 83.5386 80.6193 83.4997Z" fill="#DAB692"/>
<path d="M97.2424 78.782L103.129 78.6414C104.481 78.6031 104.553 80.8392 103.189 80.8775L97.3022 81.018C95.9501 81.0564 95.8783 78.8203 97.2424 78.782Z" fill="#DAB692"/>
<path d="M92.5141 84.3065L97.5531 84.1903C98.942 84.1515 99.0157 86.4119 97.6146 86.4507L92.5755 86.5669C91.1867 86.6057 91.1129 84.3453 92.5141 84.3065Z" fill="#DAB692"/>
<path d="M106 87.9616C104.674 87.8991 104.603 85.7233 105.941 85.7733C107.384 85.8358 108.839 85.8984 110.283 85.9609C111.608 86.0234 111.679 88.1992 110.341 88.1492C108.898 88.0867 107.443 88.0241 106 87.9616Z" fill="#DAB692"/>
<path d="M110.749 78.7939L117.359 78.6414C118.758 78.6033 118.832 80.8274 117.421 80.8655L110.811 81.018C109.413 81.0562 109.338 78.8321 110.749 78.7939Z" fill="#DAB692"/>
<path d="M121.078 71.1043C123.004 70.9795 124.916 70.8434 126.841 70.7187C128.282 70.6167 128.346 72.6011 126.905 72.7031C124.98 72.8279 123.067 72.964 121.142 73.0887C119.701 73.1907 119.638 71.2063 121.078 71.1043Z" fill="#DAB692"/>
<path d="M133.681 70.8193L138.019 70.7154C139.348 70.6764 139.418 72.9491 138.078 72.9881L133.74 73.092C132.412 73.131 132.341 70.8583 133.681 70.8193Z" fill="#DAB692"/>
<path d="M144.557 71.143C146.31 70.8653 148.074 70.7149 149.863 70.7149C151.248 70.7149 151.322 72.7396 149.925 72.7396C148.344 72.7396 146.763 72.8322 145.194 73.0752C143.846 73.295 143.197 71.3512 144.557 71.143Z" fill="#DAB692"/>
<path d="M154.428 73.0874C152.988 73.2096 152.924 71.0839 154.364 70.9495C156.544 70.7541 158.723 70.6807 160.916 70.7296C162.356 70.754 162.433 72.8919 160.979 72.8675C158.787 72.8308 156.608 72.9042 154.428 73.0874Z" fill="#DAB692"/>
<path d="M125.096 80.0164C123.68 79.8683 123.591 77.7088 125.032 77.8569C126.946 78.0543 128.872 78.116 130.798 78.0296C132.24 77.9679 132.317 80.1274 130.862 80.1891C128.936 80.2755 127.022 80.2138 125.096 80.0164Z" fill="#DAB692"/>
<path d="M136.859 78.2295C138.56 78.1041 140.273 77.9788 141.974 77.8534C143.318 77.7509 143.378 79.7448 142.034 79.8474C140.332 79.9727 138.619 80.0981 136.918 80.2234C135.574 80.3259 135.514 78.332 136.859 78.2295Z" fill="#DAB692"/>
<path d="M148.845 81.0103C147.444 81.1654 147.395 79.0772 148.783 78.922C150.988 78.6834 153.181 78.5998 155.399 78.6595C156.799 78.6953 156.874 80.7835 155.461 80.7477C153.243 80.6881 151.05 80.7716 148.845 81.0103Z" fill="#DAB692"/>
<path d="M144.12 87.2471C142.686 87.3356 142.623 85.135 144.057 85.0338C145.82 84.92 147.558 84.9959 149.309 85.2109C150.73 85.3879 150.197 87.5254 148.776 87.3483C147.228 87.1586 145.668 87.1333 144.12 87.2344V87.2471Z" fill="#DAB692"/>
<path d="M135.364 88.1153C133.783 87.7459 132.227 87.6564 130.609 87.8019C129.224 87.925 129.163 85.9662 130.548 85.8431C132.337 85.6752 134.126 85.8096 135.879 86.2125C137.227 86.5259 136.724 88.4287 135.364 88.1153Z" fill="#DAB692"/>
<path d="M117.481 88.1212C116.103 88.415 115.452 86.3709 116.83 86.0771C118.032 85.82 119.234 85.7099 120.474 85.8078C121.063 85.8568 121.589 86.2362 121.614 86.8482C121.626 87.3746 121.138 87.9866 120.549 87.9377C119.522 87.852 118.495 87.9009 117.493 88.109L117.481 88.1212Z" fill="#DAB692"/>
<path d="M132.145 92.2536L137.968 92.1131C139.362 92.0748 139.436 94.3108 138.03 94.3492L132.206 94.4897C130.812 94.528 130.738 92.292 132.145 92.2536Z" fill="#DAB692"/>
<path d="M119.595 95.2725C119.001 95.3588 118.47 94.7546 118.445 94.2245C118.42 93.5835 118.938 93.2136 119.519 93.1273C120.896 92.93 122.286 92.8684 123.676 92.9301C125.104 93.0041 125.18 95.1492 123.74 95.0875C122.337 95.0136 120.96 95.0875 119.582 95.2847L119.595 95.2725Z" fill="#DAB692"/>
<path d="M108.401 93.0238L113.365 92.9076C114.804 92.8689 114.88 95.1293 113.429 95.168L108.465 95.2843C107.026 95.323 106.95 93.0626 108.401 93.0238Z" fill="#DAB692"/>
<path d="M96.5572 95.2721C95.9913 95.3476 95.4856 94.7436 95.4615 94.2026C95.4374 93.5608 95.919 93.1582 96.4849 93.0827C97.6408 92.9318 98.7968 92.8814 99.9527 92.9192C101.313 92.9695 101.386 95.1715 100.013 95.1212C98.8449 95.0834 97.689 95.1337 96.5451 95.2847L96.5572 95.2721Z" fill="#DAB692"/>
<path d="M82.2475 92.2293L87.2118 92.1131C88.6502 92.0744 88.7266 94.3348 87.2755 94.3735L82.3111 94.4897C80.8727 94.5285 80.7963 92.2681 82.2475 92.2293Z" fill="#DAB692"/>
<path d="M80.6841 100.822C79.6209 100.622 78.5577 100.597 77.4945 100.697C76.1293 100.822 76.0688 98.6299 77.4341 98.5046C78.6906 98.3918 79.9472 98.467 81.1916 98.6925C82.5447 98.9431 82.0373 101.06 80.6841 100.81V100.822Z" fill="#DAB692"/>
<path d="M89.2867 100.131L92.8588 100.039C94.1693 100 94.2389 102.285 92.9168 102.324L89.3447 102.416C88.0342 102.455 87.9646 100.17 89.2867 100.131Z" fill="#DAB692"/>
<path d="M101.268 100.95L106.233 100.834C107.671 100.795 107.747 103.055 106.296 103.094L101.332 103.21C99.8934 103.249 99.8171 100.989 101.268 100.95Z" fill="#DAB692"/>
<path d="M112.339 103.209C111.014 103.162 110.944 101.103 112.28 101.151C113.639 101.209 114.987 101.115 116.323 100.856C117.612 100.598 118.233 102.574 116.932 102.821C115.409 103.126 113.885 103.256 112.339 103.197V103.209Z" fill="#DAB692"/>
</svg>
