<svg width="166" height="126" viewBox="0 0 166 126" fill="none" xmlns="http://www.w3.org/2000/svg">
<path d="M160.744 51.9198C159.125 63.1722 156.635 74.246 151.253 83.8909C141.142 102.014 123.255 116.469 106.022 122.804C86.218 130.079 65.592 122.554 47.193 113.802C30.759 105.991 15.635 94.1193 7.82307 74.5556C-1.09631 52.2056 -0.155147 26.0928 1.21469 1.86144C1.29808 0.301586 3.3345 0.384873 3.2392 1.94473C2.09568 22.0919 1.28559 42.9893 6.13221 62.4816C11.5028 84.0934 24.5785 98.8227 41.3459 108.158C58.2086 117.541 79.2395 126.472 98.1388 122.578C115.942 118.91 133.949 105.229 145.608 88.7849C153.206 78.0683 156.731 65.4108 158.696 51.8364C160.685 38.1073 162.078 24.2472 163.305 10.4228C163.448 8.87486 165.473 8.94624 165.33 10.5061C164.091 24.3424 162.698 38.2026 160.72 51.9198H160.744Z" fill="#8F5B34"/>
<path d="M144.372 75.6275C138.183 94.5993 125.732 106.423 109.617 112.411C77.4441 124.365 37.952 113.938 21.2534 77.1661C11.4342 55.5431 11.1489 28.0499 11.0064 3.92967C10.9826 0.0477084 16.0412 0.272569 16.0768 4.14269C16.2075 24.4164 16.5523 46.3353 22.4557 65.5084C27.5735 82.1013 38.1903 95.2266 51.4495 103.014C78.8367 119.098 125.542 113.5 138.933 75.6985C146.467 54.4187 146.908 29.8015 147.932 7.18435C148.11 3.31423 153.169 3.51542 153.002 7.39738C151.978 29.9672 151.359 54.2057 144.384 75.6393L144.372 75.6275Z" fill="#8F5B34"/>
<path d="M108.251 101.691C94.1326 108.081 76.5478 106.105 62.2146 102.274C47.1283 98.2405 37.5889 86.5085 31.5642 70.0528C23.9017 49.1114 21.1166 25.9092 22.946 3.07589C23.197 -0.0177352 27.2615 0.136963 27.0104 3.24249C25.1452 26.3733 28.014 50.2537 36.4654 71.1356C40.6254 81.4279 46.5307 90.3279 55.616 94.7899C63.9361 98.8711 73.3442 99.7635 82.286 100.394C91.8495 101.072 101.748 100.537 110.522 95.2658C118.161 90.6611 124.306 83.2127 128.896 74.7052C139.763 54.6204 141.078 30.1808 142.334 7.14517C142.501 4.03965 146.578 4.19435 146.398 7.31177C144.521 41.7819 140.038 87.282 108.227 101.691H108.251Z" fill="#8F5B34"/>
<path d="M122.939 70.7476C112.587 86.2019 96.2975 91.2577 80.5554 92.1063C73.0592 92.5127 65.2179 91.9031 58.3762 88.0545C50.7848 83.7756 46.1206 75.6122 42.3607 66.923C34.2103 48.1221 30.9266 26.6918 32.4975 5.47659C32.7236 2.35706 36.7811 2.51245 36.5431 5.64393C35.1388 24.6241 37.6848 43.7476 44.4312 60.911C47.8103 69.4927 51.9391 78.5525 59.1973 83.1182C65.7177 87.2178 73.4995 87.6362 80.7578 87.2537C96.1786 86.4171 112.171 81.1461 121.476 65.0703C130.995 48.6241 132.078 28.1859 133.066 8.96669C133.221 5.84716 137.278 6.00248 137.111 9.13396C136.028 30.3611 134.588 53.3572 122.939 70.7476Z" fill="#8F5B34"/>
<path d="M115.553 58.5537C106.676 69.0321 92.1832 73.1973 80.2128 74.5264C67.4928 75.9385 55.4749 71.6428 49.121 57.7704C41.9699 42.1418 41.4466 21.3391 42.5535 3.90674C42.6487 2.35218 44.6715 2.43526 44.5763 3.98981C43.5647 19.9389 44.1118 37.5493 49.2639 52.4303C54.9156 68.771 67.5285 73.9449 81.6288 71.9394C92.683 70.3611 106.046 66.5518 114.185 56.7854C124.168 44.7999 125.941 24.116 126.084 8.23817C126.096 6.68361 128.119 6.76669 128.107 8.32124C127.964 24.8043 126.012 46.2003 115.541 58.5537H115.553Z" fill="#8F5B34"/>
<path d="M113.372 51.6537C105.099 61.8829 92.7431 64.3516 81.3992 63.9264C70.6027 63.5247 57.1876 63.8909 51.7598 50.9095C46.1535 37.5029 46.3203 19.6195 47.9632 5.07894C48.1418 3.55519 50.1654 3.62607 49.9868 5.16163C48.4868 18.3675 48.5818 32.6009 52.0575 45.3106C53.9738 52.3388 57.4852 57.8314 63.8297 59.485C69.4838 60.9615 75.6975 61.3041 81.4944 61.5286C92.0647 61.9302 103.611 59.8276 111.491 50.5079C120.014 40.4205 119.645 24.1318 120.931 10.9614C121.086 9.4258 123.11 9.50843 122.955 11.044C121.633 24.5569 121.919 41.0937 113.36 51.6537H113.372Z" fill="#8F5B34"/>
<path d="M106.146 44.2954C100.465 53.9145 91.961 57.4081 82.3331 56.7236C72.9923 56.0627 63.8069 53.7965 59.1904 43.3394C54.1315 31.8673 56.2725 18.3416 55.4116 5.91344C55.304 4.37911 57.3372 4.47346 57.4448 5.996C58.1503 16.1934 56.7269 26.922 59.1905 36.8362C62.4794 50.0433 71.5691 53.5605 82.4289 54.3276C92.2959 55.024 100.465 51.1056 105.632 40.7783C110.523 31.0057 110.942 19.3802 111.373 8.41559C111.433 6.86945 113.466 6.952 113.406 8.49814C112.928 20.7256 112.317 33.8265 106.134 44.2954H106.146Z" fill="#8F5B34"/>
<path d="M81.3913 48.8679C62.4761 47.3586 61.2906 19.7753 62.3689 3.04224C62.4648 1.4854 64.5132 1.5686 64.4054 3.12543C63.4229 18.4799 63.8538 44.9937 81.4992 46.4435C98.7013 47.8578 102.655 22.2472 104.045 7.42753C104.188 5.88257 106.225 5.95389 106.081 7.51073C104.571 23.709 99.8273 50.3296 81.3913 48.856L81.3913 48.8679Z" fill="#8F5B34"/>
<path d="M83.4073 36.6498C69.9216 36.8998 68.2125 18.2217 68.2126 5.78155C68.2127 4.22207 70.2308 4.30534 70.2307 5.86482C70.2306 16.7574 71.37 34.507 83.5023 34.2332C94.1983 33.9832 98.6858 20.6621 98.1517 9.67426C98.0805 8.12668 100.099 8.22193 100.17 9.7576C100.763 22.1739 95.1836 36.4355 83.3955 36.6498H83.4073Z" fill="#8F5B34"/>
<path d="M80.1647 25.4212C74.2903 24.0102 71.1998 15.7913 73.6181 9.41837C74.1489 8.01915 76.0599 8.72462 75.529 10.1356C73.3703 15.85 76.3546 22.8344 81.769 23.0813C87.6435 23.3517 91.7957 16.9906 92.8574 10.6765C93.1052 9.17146 95.0161 9.88868 94.7684 11.3937C93.4707 19.1071 87.3838 27.1496 80.1765 25.4212H80.1647Z" fill="#8F5B34"/>
<path d="M83.9045 20.4249C79.5347 20.2405 76.7519 14.1826 78.1494 9.27964C78.5876 7.75593 80.506 8.4932 80.0678 10.0292C79.1085 13.3961 80.9321 17.7952 84.0111 17.9304C87.09 18.0655 89.3165 13.949 88.6534 10.4715C88.3573 8.91097 90.3231 8.33347 90.6191 9.89404C91.5783 14.9444 88.2743 20.6215 83.9045 20.4372L83.9045 20.4249Z" fill="#8F5B34"/>
</svg>
