<svg width="225" height="283" viewBox="0 0 225 283" fill="none" xmlns="http://www.w3.org/2000/svg">
<path d="M198 38.4246C197.522 41.3615 197.352 44.3496 196.891 47.2864C196.447 50.1209 195.663 52.887 194.81 55.6189C193.035 61.2536 191.329 66.9224 189.589 72.5742C187.866 78.1235 186.04 83.6898 184.641 89.3245C183.276 94.7543 182.389 100.287 181.383 105.802C180.376 111.368 179.233 116.951 177.408 122.33C176.554 124.857 175.991 127.47 174.78 129.877C173.569 132.285 171.982 134.47 170.6 136.792C169.184 139.183 168.075 141.71 166.796 144.169C165.55 146.559 164.475 149.137 162.889 151.323C161.285 153.543 159.289 155.455 157.617 157.624C155.962 159.775 154.444 162.012 152.942 164.266C149.922 168.773 146.954 173.384 143.081 177.225C139.225 181.067 135.694 185.302 131.582 188.87C127.47 192.439 123.103 195.7 119.076 199.371C117.029 201.25 115.374 203.23 113.719 205.45C112.15 207.533 110.324 209.343 108.908 211.546C103.415 220.049 98.4839 229.167 91.779 236.833C88.3497 240.761 84.1869 243.714 80.024 246.805C77.6696 248.564 75.2811 250.288 72.8243 251.927C70.5723 253.43 68.6103 255.274 66.4095 256.828C64.2427 258.365 61.786 259.406 59.5339 260.789C57.0772 262.309 54.7398 264.016 52.3513 265.656C50.1163 267.192 47.8813 268.712 45.4245 269.873C43.1213 270.949 40.7328 271.802 38.3443 272.656C35.8705 273.544 33.4819 274.671 30.9911 275.508C28.5855 276.31 26.1117 276.703 23.6378 277.266C20.7887 277.915 17.9736 278.735 15.1245 279.401C12.5995 279.998 10.0232 280.425 7.51528 281.074C5.38267 281.62 3.1648 282.406 0.946883 282.167C-0.315621 282.03 -0.315621 280.05 0.946883 280.186C3.2501 280.425 5.4851 279.503 7.68595 278.991C10.2792 278.376 12.9065 277.915 15.4998 277.283C18.2636 276.618 21.0105 275.815 23.7914 275.217C26.2994 274.688 28.8244 274.244 31.2299 273.339C33.5673 272.468 35.8534 271.461 38.2249 270.624C40.7157 269.736 43.2067 268.849 45.5611 267.636C50.4234 265.126 54.5692 261.404 59.295 258.672C61.7006 257.272 64.2427 256.128 66.4436 254.386C68.4738 252.781 70.4699 251.193 72.6196 249.725C74.991 248.12 77.2943 246.412 79.5975 244.705C81.8154 243.049 84.1186 241.461 86.2171 239.651C89.9364 236.424 92.9562 232.479 95.72 228.433C98.518 224.335 101.35 220.203 103.926 215.951C105.359 213.595 106.724 211.17 108.328 208.916C109.761 206.901 111.518 205.177 112.969 203.179C116.091 198.893 120.339 195.615 124.416 192.285C128.682 188.819 132.742 185.268 136.461 181.221C138.253 179.274 140.129 177.396 141.989 175.518C143.951 173.537 145.657 171.369 147.261 169.098C150.366 164.727 153.113 160.116 156.457 155.916C158.146 153.782 160.159 151.904 161.66 149.633C163.093 147.43 164.185 144.92 165.38 142.581C166.625 140.122 167.768 137.595 169.218 135.239C170.583 133.019 172.119 130.867 173.245 128.511C174.405 126.069 175.019 123.32 175.838 120.742C176.708 118.01 177.425 115.227 178.039 112.427C179.233 107.031 180.069 101.567 181.11 96.1373C182.167 90.6051 183.652 85.2095 185.273 79.8309C186.979 74.1963 188.753 68.5787 190.459 62.9611C192.114 57.4801 194.212 52.0161 195.031 46.3303C195.424 43.53 195.611 40.7127 196.072 37.9295C196.277 36.6659 198.188 37.2123 197.983 38.4588L198 38.4246Z" fill="#637155"/>
<path d="M18.8567 168.682C19.2647 172.604 21.0837 175.11 24.1097 177.787C32.1169 184.966 39.41 190.013 43.2521 200.5C45.1221 205.615 46.8731 210.185 51.0552 213.885C54.4723 216.886 58.5694 218.983 62.2244 221.66C65.0295 223.706 67.6305 225.991 70.4356 228.038C71.7956 229.027 72.9686 230.033 74.4477 230.851C75.8417 231.618 77.3207 232.352 78.3577 233.63C80.0067 235.677 81.2818 238.081 82.1658 240.553C82.4038 241.201 82.5738 242.855 83.3048 243.145C84.1208 243.469 84.9538 242.531 84.9878 241.781C85.1238 239.684 84.0698 237.637 84.3418 235.438C84.4438 234.671 84.5628 233.903 84.6478 233.136C84.8349 231.635 85.0729 230.135 84.9199 228.634C84.7329 226.69 84.0358 224.883 83.1008 223.195C82.1998 221.541 80.9928 220.876 79.8367 219.461C77.5247 216.579 74.7366 214.124 71.8126 211.873C66.1005 207.457 59.7764 203.944 53.8263 199.852C53.1293 199.374 52.4323 198.88 51.7693 198.368C46.5332 194.395 41.909 190.201 38.237 184.727C35.3979 180.464 32.9669 175.946 30.2638 171.614C26.7788 166.005 22.7837 160.531 17.1226 157.308C15.9496 155.808 14.3516 154.955 12.1075 155.279C11.0705 155.416 17.8536 159.662 18.8056 168.682H18.8567Z" fill="#637155"/>
<path d="M98.5166 227.755C99.5326 222.908 100.312 218.027 100.887 213.128C101.412 208.675 100.075 204.239 97.4667 200.591C97.2466 200.283 97.0603 200.009 96.9418 199.803C94.9097 196.703 94.9436 192.849 93.8937 189.39C93.047 186.598 91.7939 185.69 90.3545 183.618C88.9151 181.545 89.8296 178.308 89.4062 175.91C88.4241 170.498 83.0391 168.254 80.5668 163.544C77.6373 157.96 74.5892 152.171 72.4555 146.211C71.5411 150.339 69.9832 154.329 70.0001 158.663C70.0001 164.966 74.4198 166.01 77.451 170.498C80.2789 174.694 80.4313 178.428 79.7879 183.429C79.5 185.673 79.2968 187.574 80.0419 189.801C81.2442 193.38 84.5293 195.573 86.0703 198.93C87.6282 202.321 88.8982 205.969 89.1014 209.617C89.3554 214.276 93.2841 216.674 93.9784 220.956C94.2154 222.343 94.1646 222.943 94.6896 224.09C95.0282 224.81 95.5193 225.392 95.8918 226.077C96.2644 226.762 97.4836 229.194 98.4997 227.773L98.5166 227.755Z" fill="#637155"/>
<path d="M82.1522 243.327C86.058 240.223 90.1008 237.31 94.2464 234.59C98.0151 232.113 102.606 231.363 107.026 232.148C107.403 232.218 107.711 232.253 107.968 232.288C111.651 232.776 115.111 231.014 118.675 230.439C121.553 229.968 122.94 230.718 125.424 231.119C127.925 231.52 130.426 229.218 132.773 228.555C138.066 227.038 142.469 231.014 147.814 231.206C154.135 231.433 160.696 231.642 167 230.945C163.694 233.648 160.799 236.857 156.91 238.793C151.24 241.601 148.345 237.991 142.966 237.206C137.929 236.456 134.503 237.991 130.306 240.833C128.422 242.107 126.795 243.136 124.465 243.449C120.713 243.938 117.27 241.88 113.587 241.95C109.852 242.019 105.998 242.473 102.64 243.92C98.3407 245.769 94.452 243.223 90.2892 244.478C88.9359 244.88 88.422 245.193 87.1544 245.211C86.3492 245.211 85.6297 245.019 84.8417 244.984C84.0709 244.949 81.3299 244.914 82.1522 243.327Z" fill="#637155"/>
<path d="M103.017 219.954C105.338 218.208 108.913 217.14 111.56 215.785C118.075 212.48 124.298 208.734 130.899 205.599C133.494 204.362 134.061 204.65 136.279 204.751C139.15 204.887 142.416 202.006 145.028 200.82C148.208 199.396 151.767 197.837 155.325 197.955C159.863 198.125 161.651 199.074 165.81 196.091C172.136 191.566 176.296 184.228 183 180.211C179.304 185.312 176.09 190.786 172.188 195.752C170.108 198.413 167.701 202.972 164.418 204.379C160.688 205.989 155.737 207.328 151.681 207.531C148.965 207.666 146.3 207.26 143.722 208.378C140.868 209.615 139.321 212.395 137.121 214.446C133.615 217.717 129.42 216.157 125.089 217.513C122.166 218.428 119.794 219.276 116.683 219.106C114.603 218.988 113.09 219.191 111.062 219.733C109.034 220.276 108.208 219.767 106.421 219.818C105.424 219.852 104.066 220.615 103 219.92L103.017 219.954Z" fill="#637155"/>
<path d="M114.808 204.194C116.835 202.481 117.505 198.403 118.089 195.936C118.691 193.418 119.309 190.454 118.828 187.85C118.33 185.195 116.835 185.16 115.581 183.379C114.757 182.214 114.757 179.661 114.534 178.273C114.035 175.378 113.554 172.466 112.97 169.588C111.854 164.208 110.583 158.777 109.174 153.467C108.247 149.954 107.147 145.209 104.966 142.211C105.532 142.982 105.017 143.89 104.863 144.832C104.33 148.019 104.244 151.171 104.175 154.409C104.09 158.144 103.196 166.161 106.46 168.799C107.302 169.485 107.8 168.937 108.384 170.478C109.02 172.14 108.71 174.522 108.539 176.252C108.178 179.747 106.598 183.584 107.937 187.062C109.054 189.94 111.716 190.266 113.383 192.356C114.705 194.017 113.228 196.228 113.795 198.283C114.121 199.483 115.478 200.356 115.667 201.504C115.839 202.583 114.396 203.766 114.791 204.211L114.808 204.194Z" fill="#637155"/>
<path d="M214 163.969C213.708 163.613 211.99 162.867 211.131 162.528C207.214 161.054 202.988 160.155 198.831 159.613C195.068 159.104 191.22 159.121 187.424 159.426C185.311 159.596 182.648 159.494 180.638 160.257C179.332 160.765 178.439 161.901 177.305 162.715C174.471 164.749 171.396 166.885 168.269 168.394C163.27 170.818 157.223 168.614 152.464 172.191C150.592 173.598 149.131 175.446 147.19 176.836C145.747 177.887 144.098 178.633 142.689 179.667C139.614 181.922 134.666 184.6 133 188.211C136.487 184.804 141.624 183.125 146.365 183.397C149.801 183.6 151.33 179.701 153.753 177.446C157.051 174.378 160.573 174.293 164.747 175.107C168.922 175.904 171.739 177.48 175.261 174.836C178.662 172.276 179.762 170.174 184.28 170.801C187.063 171.191 189.915 172.123 192.646 170.937C195 169.92 196.735 167.851 199.088 166.75C202.352 165.224 205.393 165.258 208.863 164.902C210.392 164.749 211.801 164.19 214 163.952V163.969Z" fill="#637155"/>
<path d="M131.521 188.194C136.21 181.686 140.506 173.963 137.117 166.086C136.142 163.825 134.738 161.719 134.978 159.133C135.269 156.016 137.596 153.721 138.555 150.879C140.626 144.765 134.909 139.799 132.924 134.439C130.716 128.479 133.848 123.102 134.755 117.211C132.719 120.156 129.518 124.232 129.313 128.051C129.142 131.116 131.589 133.925 131.487 137.042C131.418 139.079 130.254 140.997 129.998 143.035C129.655 145.69 130.323 147.025 131.059 149.474C132.719 155.006 127.413 157.181 127.02 162.215C126.694 166.36 130.511 170.863 131.144 175.042C131.469 177.234 131.007 179.563 130.853 181.875C130.665 184.546 132.496 186.704 131.538 188.211L131.521 188.194Z" fill="#637155"/>
<path d="M175.014 129.211C177.662 122.269 179.794 114.457 175.747 109.22C174.581 107.719 173.116 106.508 172.866 104.308C172.566 101.681 174.048 98.986 174.331 96.3251C174.948 90.6281 169.551 88.5813 167.053 84.897C164.289 80.8204 165.871 75.328 165.604 70.2109C164.488 73.3324 162.607 77.7672 163.073 80.9568C163.456 83.5154 165.887 84.9481 166.337 87.5237C166.637 89.2124 166.021 91.1739 166.154 92.9308C166.337 95.1994 167.087 96.0693 168.086 97.8091C170.351 101.732 166.47 105.365 167.003 109.595C167.436 113.092 171.25 115.412 172.466 118.602C173.099 120.273 173.116 122.337 173.382 124.281C173.682 126.516 175.514 127.642 174.998 129.211H175.014Z" fill="#637155"/>
<path d="M219 139.739C210.859 138.101 202.102 137.859 193.824 137.583C191.288 137.497 187.723 136.79 185.358 137.583C181.553 138.843 178.468 142.861 174.852 144.793C173.07 145.741 171.647 145.569 169.95 146.241C166.112 147.759 163.181 151.898 160.387 154.744C158.982 156.175 156.96 157.504 156 159.211C161.159 156.02 166.249 152.795 171.287 149.398C172.71 148.432 174.475 146.776 176.069 146.19C176.857 145.896 177.731 146.086 178.537 146.034C180.679 145.879 182.787 145.241 184.929 145.155C186.746 145.086 188.34 145.379 190.054 145.741C191.545 146.052 193.121 146.276 194.629 145.914C195.983 145.586 196.909 144.499 198.143 144.068C199.942 143.43 201.879 143.568 203.918 142.947C207.02 142.016 210.037 142.74 213.07 142.068C214.801 141.688 216.464 140.74 218.177 140.24C218.04 140.343 217.903 140.446 219 139.757V139.739Z" fill="#637155"/>
<path d="M152.523 164.211C154.214 164.005 154.721 160.977 155.33 159.533C156.665 156.299 158.373 153.341 159.049 149.625C159.607 146.564 159.218 143.003 159.759 139.925C160.841 133.784 163.292 128.229 162.971 121.211C160.114 125.907 155.871 129.673 153.318 134.661C151.779 137.671 151.323 142.178 151.035 146.082C150.765 149.849 152.151 154.321 151.61 157.933C151.374 159.55 151.238 161.751 152.506 164.211H152.523Z" fill="#637155"/>
<path d="M174.546 131.211C174.683 129.454 177.905 127.854 179.372 127.107C181.06 126.237 182.441 124.95 184.078 124.011C186.345 122.689 186.942 123.42 189.21 123.663C192.109 123.994 194.07 120.88 196.082 119.176C197.326 118.115 199.031 116.567 200.719 116.411C201.981 116.307 202.237 116.915 203.26 117.385C205.562 118.446 209.04 115.646 211.308 114.585C216.679 112.08 220.14 110.567 225 107.211C221.829 110.898 217.941 113.42 214.173 116.376C212.263 117.872 210.66 118.759 208.461 119.211C205.596 119.802 203.243 119.82 201.129 121.75C198.622 124.028 196.099 125.176 192.893 125.889C191.29 126.237 189.807 126.185 188.238 126.759C186.175 127.507 185.885 127.298 183.941 127.054C180.719 126.637 176.763 129.228 174.001 130.724C173.983 130.933 174.376 131.054 174.563 131.211H174.546Z" fill="#637155"/>
<path d="M182.462 104.086C182.191 104.086 181.92 104.427 182.022 103.983C183.392 101.85 183.713 99.6821 186.047 98.1289C187.705 97.0366 191.003 95.9784 192.813 95.5005C194.792 94.9885 197.447 95.7736 199.206 94.374C201.76 92.3601 201.321 87.6152 203.807 85.3452C206.801 82.5973 211.401 85.1063 215.072 84.6113C219.182 84.0652 222.26 81.1466 225 78.2109C222.818 81.505 220.45 84.4065 217.389 86.8301C215.934 87.9907 214.547 89.0148 212.704 89.3732C211.469 89.6122 209.659 88.8953 208.61 89.1855C206.53 89.7828 206.547 91.6261 205.464 93.5377C204.111 95.9272 201.997 97.7876 199.24 98.2143C197.346 98.5044 196.551 98.1289 194.876 99.153C192.999 100.297 192.17 101.269 189.904 101.577C187.739 101.85 183.206 101.696 182.445 104.068L182.462 104.086Z" fill="#637155"/>
<path d="M194.413 51.2109C197.683 47.3233 203.392 42.242 203.963 37.0755C204.154 35.3534 203.548 33.1879 203.444 31.4657C203.288 28.6864 203.565 25.9411 202.735 23.2471C200.555 16.0856 195.399 7.52588 199.534 0.210938C197.527 3.24604 195.641 6.46871 194.517 9.94715C193.496 13.1187 194.067 14.2099 195.538 17.0234C198.479 22.6162 196.403 26.555 194.932 32.1648C194.292 34.5861 193.513 36.5128 194.396 38.7636C195.192 40.7756 196.022 42.2761 196.195 44.578C196.368 46.9823 195.071 49.0796 194.413 51.1939V51.2109Z" fill="#637155"/>
<path d="M183.637 91.8858C183.369 88.5183 185.879 84.5494 185.996 80.9241C186.13 76.6116 182.683 74.7217 180.474 71.3885C175.972 64.5675 174.918 56.0284 174.131 48.2109C170.868 53.9839 171.872 63.0899 173.696 69.1893C174.951 73.3472 178.733 74.8248 179.704 79.1373C180.005 80.4602 179.804 81.3365 180.574 82.5048C181.344 83.6731 183.352 84.5494 183.704 85.9926C184.055 87.4702 182.716 89.1883 182.934 90.8206C183.051 91.6796 183.72 92.7792 183.62 91.8686L183.637 91.8858Z" fill="#637155"/>
<path d="M189.909 66.2109C191.32 64.0878 191.175 56.0878 190.524 53.8967C189.276 49.6674 190.397 45.1324 189.33 40.937C188.571 37.9816 187.214 35.8925 187.196 32.6823C187.196 30.3213 187.92 28.368 188.499 26.2109C185.641 30.5252 182.784 35.5867 184.538 40.6143C185.948 44.6908 185.731 48.2916 185.442 52.5379C185.243 55.5103 187.052 59.0262 187.902 61.9477C188.408 63.6632 188.914 65.2258 189.909 66.1939V66.2109Z" fill="#637155"/>
<path d="M188.017 76.2109C191.225 71.4655 196.112 69.3006 201.322 67.8631C207.636 66.1138 210.555 58.3374 214 53.2109C213.219 56.6055 211.03 60.2945 209.554 63.4986C208.943 64.8495 208.264 66.5121 207.313 67.6898C206.193 69.0581 204.496 69.7508 203.003 70.6341C201.577 71.4828 200.168 72.7298 198.658 73.3879C197.504 73.8901 189.273 75.6914 188 76.2109H188.017Z" fill="#637155"/>
</svg>
