<svg width="56" height="42" viewBox="0 0 56 42" fill="none" xmlns="http://www.w3.org/2000/svg">
<path d="M0.798022 18.4779C0.985474 19.1493 1.23852 19.8487 1.54782 20.5947C3.31923 24.8004 7.55565 28.4093 12.2794 31.1509C17.0032 33.8925 22.2612 35.9254 27.3318 38.2008C29.4875 39.1706 31.6431 40.1964 33.9675 40.7652C38.8319 41.9589 43.9399 40.9611 47.4921 38.7137C51.0443 36.4663 53.1626 33.1092 54.2779 29.5563C55.2808 26.367 55.4963 22.8141 53.7249 19.5223C52.7783 17.7598 51.3162 16.1466 49.8728 14.552L43.0964 7.11971C41.878 5.7862 40.6408 4.42472 39.0568 3.33366C33.8644 -0.275213 24.6981 -0.722812 19.4026 1.13291C18.1373 1.58053 16.8251 1.95354 15.4942 2.29857C12.9355 2.96999 10.3205 3.60412 8.12733 4.76045C6.25281 5.74893 4.67823 7.00783 3.45042 8.48122C0.64802 11.829 -0.279824 14.6545 0.798022 18.4872V18.4779Z" fill="#D49E8D"/>
</svg>
